<?xml version="1.0" standalone="no"?>
<!DOCTYPE svg PUBLIC "-//W3C//DTD SVG 20010904//EN"
 "http://www.w3.org/TR/2001/REC-SVG-20010904/DTD/svg10.dtd">
<svg version="1.0" xmlns="http://www.w3.org/2000/svg"
 width="450.000000pt" height="450.000000pt" viewBox="0 0 450.000000 450.000000"
 preserveAspectRatio="xMidYMid meet">
<metadata>
Created by potrace 1.11, written by Peter Selinger 2001-2013
</metadata>
<g transform="translate(0.000000,450.000000) scale(0.100000,-0.100000)"
fill="#000000" stroke="none">
<path d="M2310 4080 c9 -19 10 -22 0 -13 -7 6 -19 9 -28 6 -9 -4 -13 -2 -9 3
7 11 -53 11 -71 0 -7 -4 -12 -3 -12 1 0 10 -132 9 -148 -1 -7 -4 -12 -2 -12 3
0 6 -5 11 -11 11 -5 0 -8 -4 -4 -9 3 -5 1 -13 -5 -16 -6 -4 -9 -1 -8 6 3 13
-40 20 -48 7 -3 -4 -10 -8 -15 -8 -6 0 -7 5 -3 11 4 8 0 8 -15 0 -16 -9 -21
-9 -21 1 -1 8 -7 5 -15 -6 -8 -11 -15 -14 -15 -7 0 7 -4 9 -10 6 -5 -3 -10 -1
-10 5 0 7 -6 5 -15 -4 -17 -16 -20 -30 -5 -21 6 4 7 -2 1 -17 -5 -13 -5 -33 0
-45 5 -14 4 -25 -3 -29 -7 -5 -8 -2 -3 7 7 12 5 12 -6 1 -11 -10 -11 -14 -1
-21 10 -6 10 -11 -3 -21 -9 -7 -15 -9 -14 -4 4 23 -2 26 -16 8 -15 -19 -15
-19 -9 1 6 16 5 18 -7 8 -16 -15 -33 -17 -24 -3 3 6 1 10 -4 10 -6 0 -11 -5
-11 -11 0 -8 -4 -9 -13 0 -11 8 -16 5 -26 -15 -6 -14 -8 -23 -3 -20 4 2 8 -4
8 -15 0 -10 -4 -19 -9 -19 -5 0 -4 -6 2 -14 10 -12 6 -21 -17 -47 -22 -24 -31
-29 -37 -19 -5 9 -4 11 3 6 7 -4 12 -2 12 3 0 14 -17 14 -26 0 -4 -8 -9 -7
-15 2 -6 10 -9 11 -9 2 0 -7 -5 -13 -11 -13 -5 0 -7 6 -3 13 6 8 3 8 -9 -1 -9
-8 -22 -10 -29 -6 -8 5 -8 1 2 -11 14 -17 13 -18 -4 -12 -16 6 -17 5 -7 -7 9
-10 9 -16 1 -21 -8 -5 -6 -14 7 -28 10 -11 12 -17 5 -13 -10 6 -11 1 -6 -18 4
-18 2 -26 -7 -26 -8 0 -5 -6 7 -15 19 -14 19 -14 0 -15 -20 0 -20 0 0 -16 10
-8 14 -13 7 -10 -6 4 -14 2 -18 -4 -3 -5 2 -10 12 -11 10 0 13 -3 6 -5 -7 -3
-9 -12 -6 -20 3 -8 -3 -22 -13 -30 -18 -14 -18 -14 1 -8 20 5 20 5 1 -7 -16
-9 -21 -10 -24 0 -3 8 -8 7 -16 -5 -10 -13 -15 -14 -21 -4 -6 9 -4 11 5 5 9
-5 11 -4 6 4 -6 9 -11 9 -22 0 -8 -6 -14 -8 -14 -5 0 4 -9 2 -20 -4 -17 -9
-19 -8 -13 7 5 15 3 16 -8 6 -7 -7 -17 -13 -22 -13 -4 0 -5 6 -1 13 6 10 4 10
-7 0 -14 -14 -33 -18 -25 -5 2 4 -4 8 -14 8 -15 0 -17 -3 -7 -15 10 -12 9 -13
-8 -5 -11 6 -30 9 -42 9 -18 -2 -21 2 -18 27 2 15 7 34 11 41 6 9 5 9 -7 0
-13 -11 -15 -9 -13 10 1 12 3 26 3 30 1 5 7 5 14 1 6 -4 1 4 -13 17 -22 21
-27 22 -38 9 -10 -13 -11 -12 -5 4 5 15 3 17 -8 10 -23 -14 -49 -15 -50 -1 0
6 -4 3 -9 -8 -8 -18 -9 -18 -9 -2 -1 12 -5 16 -13 11 -10 -6 -10 -5 -1 7 9 12
10 18 1 27 -6 6 -12 32 -14 58 -1 25 -8 52 -14 58 -8 8 -9 6 -4 -7 5 -15 3
-16 -19 -8 -19 8 -28 6 -38 -5 -12 -14 -14 -14 -26 2 -7 10 -13 13 -13 6 0 -6
-7 -9 -17 -5 -12 5 -14 3 -8 -8 5 -8 1 -7 -12 4 -22 19 -33 22 -33 6 0 -5 5
-7 12 -3 7 4 8 3 4 -5 -6 -8 -12 -9 -20 -2 -7 6 -16 8 -19 4 -4 -3 -7 -1 -7 6
0 7 -5 9 -10 6 -6 -4 -8 -10 -6 -14 3 -3 -4 -7 -14 -7 -14 0 -16 3 -8 13 15
18 2 16 -30 -4 -21 -14 -24 -14 -15 -2 10 12 8 15 -8 16 -11 1 -17 -3 -13 -9
4 -6 -1 -8 -12 -6 -11 2 -18 11 -16 19 1 8 -7 3 -18 -10 -15 -18 -20 -19 -20
-7 0 9 -6 16 -14 16 -10 0 -13 10 -9 36 4 29 2 35 -9 28 -9 -6 -9 -2 2 11 11
14 12 19 3 22 -7 3 -13 9 -13 14 0 6 4 7 10 4 6 -4 7 1 3 11 -4 11 -8 13 -11
6 -2 -7 -8 -12 -13 -12 -6 0 -8 4 -5 8 2 4 -14 7 -37 7 -30 -1 -41 -6 -39 -16
1 -8 -6 -4 -17 9 -12 13 -22 18 -26 12 -3 -5 -1 -10 6 -10 7 0 9 -3 6 -6 -4
-4 -14 -1 -24 7 -15 12 -16 12 -10 -3 4 -12 2 -15 -8 -11 -8 3 -13 8 -10 12 2
4 -2 8 -10 8 -8 0 -12 -4 -9 -9 8 -13 -29 -6 -38 7 -4 6 -8 -248 -8 -563 l0
-573 33 3 c18 1 39 -2 47 -7 12 -7 13 -6 5 6 -5 8 -2 7 7 -4 10 -10 23 -16 30
-12 7 4 4 -1 -6 -9 -15 -12 -16 -16 -5 -16 12 0 12 -2 -1 -10 -12 -8 -12 -10
-1 -10 11 0 11 -3 1 -15 -7 -8 -9 -15 -5 -15 4 0 1 -7 -6 -17 -13 -15 -12 -15
11 -3 22 12 24 12 12 -2 -15 -19 -7 -26 25 -23 12 1 20 -1 18 -5 -2 -4 2 -7
10 -7 8 0 11 5 8 10 -3 5 0 7 8 5 8 -3 13 -11 11 -17 -1 -7 2 -10 8 -6 5 3 10
14 10 23 1 15 2 15 11 -1 6 -9 14 -15 18 -13 4 3 8 -1 8 -9 0 -8 -5 -11 -11
-8 -8 5 -8 3 0 -8 12 -17 12 -68 0 -88 -6 -10 -5 -12 2 -7 7 4 12 2 12 -3 0
-6 3 -10 8 -10 25 4 42 -2 36 -13 -6 -10 -4 -10 7 -2 19 14 89 18 89 4 0 -6
-4 -9 -8 -6 -4 2 -8 -4 -8 -14 0 -10 3 -17 7 -14 4 2 9 -3 12 -11 4 -10 1 -12
-11 -8 -14 6 -15 4 -4 -9 10 -13 10 -17 0 -21 -10 -4 -10 -6 0 -6 6 -1 12 -6
12 -12 0 -5 -5 -7 -12 -3 -7 4 -8 3 -4 -5 4 -6 11 -9 16 -6 4 3 13 -2 20 -10
11 -13 14 -13 27 2 8 10 12 13 9 6 -4 -6 -2 -14 4 -18 5 -3 10 -1 10 5 0 7 6
8 18 2 9 -5 23 -7 31 -4 9 3 11 0 6 -8 -6 -10 -3 -12 11 -7 18 7 18 7 0 -8
-19 -14 -19 -15 -1 -15 18 0 18 -1 -1 -16 -14 -12 -15 -14 -3 -11 13 4 16 1
11 -16 -2 -12 -10 -28 -15 -35 -6 -7 -6 -12 -1 -11 19 3 29 -1 17 -9 -6 -4 11
-7 37 -7 26 0 46 3 44 7 -2 4 0 9 6 13 5 3 10 1 10 -5 0 -6 5 -8 13 -4 8 5 8
2 -2 -9 -16 -20 -1 -23 18 -4 10 10 11 8 5 -7 -5 -13 -4 -17 4 -12 7 4 12 2
12 -3 0 -6 -8 -11 -17 -12 -11 0 -13 -3 -5 -6 6 -2 12 -9 12 -14 0 -6 -4 -8
-8 -5 -9 6 -8 -16 3 -52 5 -16 13 -22 26 -19 13 3 16 0 12 -12 -4 -13 -2 -13
10 2 14 16 16 16 31 2 15 -15 16 -15 17 7 1 17 3 18 6 5 2 -9 9 -15 14 -12 5
4 17 1 26 -5 17 -11 17 -11 1 -6 -23 7 -23 -3 0 -21 9 -8 12 -12 6 -9 -7 3
-14 0 -16 -7 -6 -16 2 -38 11 -33 4 3 8 -1 8 -9 0 -8 -4 -12 -8 -9 -4 2 -10 0
-14 -6 -6 -9 8 -15 29 -11 5 1 4 -4 -2 -12 -9 -11 -4 -13 30 -10 26 2 45 -2
51 -9 6 -9 7 -5 4 10 -5 22 -4 23 12 8 10 -9 20 -14 22 -12 2 2 4 -12 4 -32 0
-21 4 -43 10 -51 8 -11 6 -13 -5 -9 -11 4 -16 0 -16 -13 0 -15 3 -16 16 -6 13
10 13 10 3 -4 -7 -9 -10 -19 -6 -23 4 -4 0 -4 -9 -1 -9 4 -27 1 -40 -5 -22
-11 -23 -11 -3 5 20 17 19 17 -5 10 -14 -4 -31 -10 -39 -13 -8 -3 -12 -1 -8 5
3 5 -1 10 -10 10 -9 0 -18 -9 -21 -19 -2 -10 -8 -15 -13 -12 -5 3 -5 -5 0 -18
6 -15 5 -31 -2 -44 -10 -18 -9 -18 8 -4 17 14 17 14 7 -6 -6 -12 -8 -25 -4
-29 4 -5 -1 -5 -10 -2 -12 4 -18 1 -18 -8 0 -19 -17 -28 -26 -14 -5 8 -3 9 6
4 9 -6 11 -4 5 4 -5 9 -11 9 -17 3 -6 -6 -19 -7 -32 -2 -16 6 -29 3 -47 -11
-13 -10 -20 -19 -15 -19 5 0 19 8 30 17 20 18 20 17 6 -2 -8 -11 -22 -26 -30
-33 -13 -12 -13 -13 4 -8 15 5 17 4 8 -7 -9 -10 -9 -16 0 -25 8 -8 7 -13 -5
-18 -13 -4 -14 -10 -7 -24 7 -13 7 -21 0 -25 -9 -6 -14 1 -11 18 0 4 -3 7 -9
7 -5 0 -10 -4 -10 -10 0 -5 -7 -7 -15 -4 -9 4 -15 0 -15 -7 0 -12 -2 -12 -9
-1 -8 13 -61 25 -59 13 2 -20 -3 -31 -13 -26 -6 4 -5 -2 2 -13 11 -17 10 -24
-2 -38 -8 -10 -9 -15 -3 -11 7 4 14 0 18 -8 3 -8 2 -14 -2 -14 -19 3 -25 -2
-12 -11 13 -8 12 -10 -2 -10 -10 0 -18 -4 -18 -9 0 -5 -7 -12 -16 -15 -15 -6
-15 -4 -3 10 12 15 10 15 -21 -1 -26 -14 -32 -14 -23 -3 10 12 10 15 -2 15 -8
0 -15 -4 -15 -8 0 -4 -9 -6 -20 -4 -12 2 -18 0 -14 -6 3 -5 0 -17 -8 -26 -11
-15 -11 -16 7 -10 16 6 15 3 -5 -13 -16 -13 -18 -18 -7 -14 13 5 16 2 14 -12
-1 -11 -7 -25 -11 -33 -7 -11 -5 -13 8 -8 14 6 16 3 11 -16 -3 -12 -3 -17 2
-12 10 13 23 13 42 1 10 -6 12 -5 7 2 -10 16 7 15 23 0 10 -9 12 -9 7 -1 -4 8
1 11 14 10 11 -1 20 -5 20 -9 0 -4 8 -8 18 -9 14 0 14 -2 -3 -9 -12 -5 -15 -9
-5 -9 11 -1 11 -4 2 -13 -18 -18 -14 -32 5 -17 14 13 15 12 6 -6 -5 -11 -8
-26 -7 -32 1 -7 2 -18 3 -24 0 -6 10 -9 20 -6 15 4 18 1 13 -12 -5 -14 -4 -14
11 -2 9 7 17 10 17 7 0 -4 10 -1 23 5 19 11 20 10 10 -2 -10 -12 -8 -15 7 -15
10 0 16 4 13 9 -3 5 4 3 15 -4 19 -12 19 -14 4 -27 -15 -12 -15 -13 -1 -9 13
4 16 -1 14 -23 -1 -15 -5 -32 -8 -36 -3 -5 1 -20 10 -34 8 -14 12 -17 9 -8 -3
12 -1 15 10 11 7 -3 14 -10 14 -17 0 -6 5 -4 10 4 9 13 11 13 20 0 9 -13 10
-13 10 0 0 12 2 13 9 1 7 -11 10 -11 15 0 5 11 7 12 12 1 5 -10 10 -9 21 5 8
10 12 13 9 7 -3 -7 1 -15 10 -18 8 -3 12 -2 9 4 -9 14 8 12 24 -2 11 -10 13
-10 7 -1 -4 7 -3 13 3 13 5 0 12 -6 14 -12 3 -8 6 -6 6 5 1 9 6 17 11 17 6 0
9 -3 9 -7 -4 -22 2 -25 14 -8 11 14 16 15 22 5 6 -9 4 -11 -5 -5 -9 5 -11 4
-6 -4 5 -8 13 -7 28 3 22 16 52 11 41 -8 -5 -8 -3 -8 8 0 8 6 26 11 42 10 15
-1 27 2 27 7 0 4 5 5 12 1 7 -4 8 -3 4 5 -4 6 -12 9 -17 6 -5 -3 -6 1 -3 9 3
9 11 13 18 9 6 -3 2 4 -8 16 -16 17 -17 21 -4 16 13 -5 15 -2 11 14 -3 12 -10
24 -15 27 -5 3 -1 12 9 20 23 17 47 18 37 2 -4 -7 3 -4 15 6 19 17 21 17 15 3
-5 -13 -2 -16 10 -11 9 3 13 11 10 18 -3 6 1 3 8 -6 14 -16 15 -16 30 1 12 14
13 22 5 31 -9 8 -7 9 8 4 18 -7 18 -6 6 9 -8 11 -9 17 -2 17 7 0 8 8 2 23 -7
19 -5 26 12 37 26 17 81 27 57 10 -8 -5 -10 -10 -4 -10 6 0 14 3 18 7 11 11
36 12 36 2 0 -6 5 -7 10 -4 8 5 7 12 -2 23 -12 15 -11 16 4 3 10 -7 24 -11 33
-8 8 4 21 -1 30 -9 8 -9 15 -11 15 -5 0 6 8 7 18 4 15 -6 16 -5 2 12 -14 17
-14 17 7 5 12 -8 19 -19 15 -25 -3 -5 3 -3 14 5 10 8 16 11 12 6 -4 -4 -2 -19
3 -33 8 -22 7 -24 -8 -19 -14 6 -14 4 3 -15 10 -12 13 -19 5 -14 -11 6 -11 4
-3 -11 8 -14 6 -21 -6 -32 -16 -13 -16 -13 0 -8 10 3 20 1 24 -5 4 -6 11 -6
20 2 12 10 13 9 8 -5 -5 -12 -2 -15 10 -10 9 3 13 11 10 18 -3 6 2 2 10 -8 15
-18 20 -15 17 9 -1 6 4 3 11 -6 7 -9 19 -14 26 -12 6 3 12 -3 12 -12 0 -10 -5
-13 -12 -9 -7 4 -8 3 -4 -5 4 -6 11 -9 16 -6 5 3 11 1 15 -5 3 -5 -2 -10 -12
-10 -15 0 -16 -2 -3 -10 13 -8 12 -10 -4 -10 -17 0 -17 -2 4 -20 l23 -20 -24
0 c-21 -1 -22 -2 -6 -11 9 -5 22 -7 27 -4 6 4 7 -1 3 -12 -5 -15 -3 -16 8 -5
15 14 33 17 25 4 -3 -5 1 -9 9 -9 8 0 12 4 9 9 -8 13 10 10 25 -4 11 -11 12
-10 6 1 -5 9 -3 12 6 9 8 -3 22 -1 31 3 12 7 20 4 27 -8 6 -10 11 -12 11 -5 0
6 5 12 11 12 5 0 7 -6 3 -12 -6 -10 -4 -10 7 0 15 14 33 17 25 4 -3 -5 5 -8
17 -7 15 1 21 8 19 20 -2 10 1 14 7 10 8 -4 10 12 9 53 -2 48 0 58 11 54 10
-4 12 -1 6 9 -7 11 -5 11 10 -1 10 -8 16 -10 12 -4 -4 7 2 12 18 12 14 0 25
-4 25 -9 0 -5 5 -9 11 -9 6 0 9 6 6 14 -5 11 0 13 24 6 16 -5 29 -6 29 -3 0 3
8 -1 17 -8 14 -12 16 -12 11 2 -5 12 -1 15 18 11 14 -2 21 -9 17 -16 -5 -7 -2
-7 8 1 22 18 77 3 64 -17 -3 -5 -1 -11 4 -14 11 -7 2 -46 -10 -46 -5 0 -6 -7
-3 -15 4 -8 11 -12 18 -8 6 3 6 1 -1 -8 -7 -7 -13 -18 -13 -23 0 -6 5 -4 10 4
8 12 10 12 10 -5 1 -19 1 -19 11 -2 10 18 11 18 32 0 11 -10 17 -13 14 -7 -4
7 -1 14 6 16 17 7 38 -2 31 -13 -3 -5 -1 -9 5 -9 5 0 12 6 14 13 3 6 6 0 6
-15 1 -14 7 -29 14 -31 7 -3 5 -6 -6 -6 -17 -1 -17 -2 0 -29 13 -20 14 -24 2
-15 -12 10 -15 8 -15 -7 0 -10 4 -18 9 -17 5 1 12 -4 15 -12 3 -8 0 -11 -7 -7
-6 4 -11 2 -11 -3 0 -14 17 -14 25 -1 3 5 13 6 22 3 11 -4 14 -3 9 5 -5 8 -2
10 8 6 9 -3 13 -11 9 -18 -4 -6 1 -5 10 3 12 9 17 10 17 2 0 -9 5 -9 21 0 15
8 19 8 15 0 -4 -6 -2 -11 4 -11 7 0 8 -6 0 -19 -7 -14 -7 -22 2 -27 7 -5 8 -3
3 6 -6 9 -4 11 5 5 11 -7 10 -10 -1 -19 -15 -12 -23 -49 -9 -41 5 3 11 1 14
-4 4 -5 -2 -12 -11 -14 -15 -4 -15 -5 3 -6 11 0 25 -6 32 -13 9 -9 15 -9 25 1
8 10 8 12 0 7 -6 -3 -14 -2 -17 3 -8 12 13 8 44 -9 23 -12 24 -12 11 3 -17 21
-8 22 13 1 9 -9 16 -11 16 -4 0 6 5 8 11 4 7 -4 7 1 -1 16 -11 21 -10 22 6 16
15 -6 17 -5 7 5 -15 15 -17 55 -3 64 6 3 10 12 10 18 0 8 -3 8 -9 -1 -7 -11
-9 -11 -14 2 -4 9 -3 15 1 15 20 -3 33 2 27 11 -3 6 1 7 9 4 9 -3 14 -9 11
-13 -2 -4 2 -8 10 -8 8 0 12 4 9 8 -2 4 0 10 6 14 5 3 10 -1 10 -9 0 -10 7
-13 23 -10 12 3 28 6 34 6 9 1 10 5 2 14 -7 8 -7 14 1 19 7 4 9 19 5 36 -4 19
-3 29 5 29 6 0 8 5 5 10 -4 6 -11 8 -16 5 -5 -4 -9 -1 -9 4 0 6 7 11 16 11 10
0 14 6 11 14 -4 10 -1 13 8 9 8 -3 13 -8 10 -12 -2 -4 2 -8 10 -8 8 0 12 4 9
9 -3 4 2 8 10 8 9 0 16 -6 16 -12 0 -10 2 -10 9 0 4 8 14 13 22 12 29 -5 38 0
32 17 -4 10 -2 14 4 10 5 -3 10 0 10 8 0 8 -4 12 -8 10 -4 -3 -10 2 -13 11 -3
9 -2 12 4 9 7 -4 9 4 6 21 -3 15 0 35 7 43 9 12 9 13 0 7 -16 -9 -17 12 -3 49
9 24 8 26 -6 21 -15 -6 -15 -4 0 18 20 31 21 42 1 26 -12 -10 -13 -7 -5 19 4
17 12 36 16 43 6 9 3 9 -9 -1 -16 -13 -16 -11 -1 24 13 32 13 37 1 32 -11 -4
-13 2 -11 23 2 18 -2 30 -12 34 -8 3 -12 2 -9 -3 3 -5 1 -12 -5 -16 -5 -3 -10
1 -10 10 0 13 -4 14 -20 5 -24 -13 -65 -4 -82 18 -11 15 -11 15 2 5 12 -9 15
-7 17 14 1 19 -1 22 -8 12 -7 -11 -9 -11 -9 4 0 9 5 17 11 17 6 0 4 7 -5 15
-8 9 -13 22 -9 30 3 9 -1 23 -8 33 -13 15 -12 16 3 4 11 -9 18 -10 23 -2 3 5
2 10 -4 10 -11 0 -9 19 3 39 6 10 5 12 -2 7 -7 -4 -12 -3 -12 3 0 5 6 12 13
14 10 4 10 6 0 6 -14 1 -18 37 -5 44 4 2 2 3 -4 1 -6 -1 -17 3 -24 9 -10 9
-11 9 -6 0 5 -8 1 -13 -9 -13 -9 0 -14 4 -11 8 3 5 -1 9 -9 9 -8 0 -12 -4 -9
-9 3 -4 0 -8 -5 -8 -6 0 -11 6 -11 13 0 7 -7 4 -15 -7 -9 -12 -15 -15 -15 -7
0 7 -6 11 -14 8 -9 -4 -12 2 -11 16 1 12 3 22 4 22 8 0 7 36 0 41 -13 8 -11
48 4 63 10 11 7 12 -13 6 -14 -3 -20 -3 -15 2 17 14 41 47 28 40 -6 -4 -14 -3
-18 3 -3 5 -2 10 3 10 6 0 12 7 16 15 3 8 2 14 -2 14 -21 -3 -24 3 -6 17 10 8
14 13 7 10 -6 -4 -15 -1 -19 5 -4 8 -3 9 4 5 7 -4 12 -2 12 4 0 6 4 9 9 6 5
-4 12 0 14 6 4 10 6 10 6 1 1 -7 6 -13 12 -13 5 0 7 6 4 13 -4 6 1 3 11 -8 16
-20 16 -20 11 3 -5 22 -4 23 11 8 19 -17 46 -16 64 2 9 9 9 12 0 12 -7 0 -12
-4 -12 -8 0 -5 -8 -9 -17 -9 -14 0 -13 3 5 15 23 15 31 39 10 26 -7 -4 -10 -4
-6 1 4 4 2 15 -5 24 -10 14 -10 14 5 3 11 -9 18 -10 23 -2 3 5 2 10 -4 10 -5
0 -8 10 -7 23 3 25 25 69 26 51 0 -6 17 -10 41 -8 36 2 39 1 27 -14 -11 -15
-11 -15 2 -6 8 6 22 10 31 9 12 -2 15 6 14 34 -1 20 -5 42 -9 49 -4 7 -4 12 1
11 22 -4 25 3 7 17 -10 8 -14 13 -7 10 6 -4 14 -2 18 4 3 5 0 10 -7 10 -8 1
-7 4 4 10 11 7 25 7 42 0 17 -6 26 -6 26 0 0 6 11 8 25 4 15 -4 25 -2 25 5 0
6 6 11 13 11 15 0 16 47 3 69 -5 8 -4 16 4 21 10 6 9 9 -1 13 -10 4 -8 6 4 6
10 1 16 5 12 10 -6 11 35 8 54 -4 9 -5 12 -4 7 3 -3 6 -1 14 5 18 7 4 9 3 6
-3 -4 -6 5 -12 21 -15 21 -3 28 0 28 13 0 10 -3 16 -7 13 -10 -6 -5 24 6 33 4
4 5 2 1 -4 -4 -7 -2 -13 3 -13 14 0 14 17 1 25 -8 5 -7 12 2 23 9 10 9 13 1 9
-8 -5 -11 0 -10 13 1 15 6 18 20 14 13 -4 20 0 24 15 5 18 7 19 21 4 15 -14
17 -14 23 3 7 16 8 17 8 2 1 -9 5 -20 11 -23 6 -3 7 1 4 10 -4 11 -2 14 9 10
9 -4 17 2 22 17 12 35 13 58 4 52 -13 -8 -11 10 4 25 6 8 7 11 1 8 -7 -4 -10
2 -9 16 3 31 3 31 19 18 11 -9 15 -9 20 1 5 11 7 11 12 0 5 -10 10 -9 21 5 8
10 12 13 9 7 -4 -8 7 -13 28 -16 31 -3 34 -2 24 15 -6 13 -6 17 0 13 5 -3 13
2 16 11 4 9 1 20 -6 24 -8 5 -9 12 -2 21 11 15 11 38 1 55 -4 6 -2 15 4 19 8
5 9 3 4 -6 -6 -10 -4 -12 8 -7 12 4 15 1 11 -11 -3 -9 2 -6 10 8 10 16 15 19
16 10 0 -11 9 -15 28 -14 l27 1 3 563 c1 417 -1 567 -9 574 -9 8 -10 8 -5 -1
4 -7 2 -13 -3 -13 -6 0 -11 6 -11 13 0 9 -3 8 -9 -2 -5 -8 -11 -9 -15 -3 -9
15 -41 7 -38 -9 1 -8 -6 -4 -17 9 -12 13 -22 18 -26 12 -3 -5 -1 -10 6 -10 7
0 9 -3 6 -6 -4 -4 -14 -1 -24 7 -15 12 -16 12 -10 -3 4 -12 2 -15 -8 -11 -8 3
-13 9 -10 14 6 8 -28 4 -44 -5 -5 -4 -12 0 -14 6 -3 7 -6 2 -6 -12 -1 -21 -3
-22 -12 -10 -9 12 -10 12 -5 -4 4 -10 2 -24 -4 -31 -8 -9 -6 -17 5 -29 11 -10
12 -16 4 -16 -8 0 -8 -5 2 -17 12 -15 12 -16 -3 -10 -11 4 -17 2 -15 -5 1 -7
-7 -13 -18 -15 -16 -3 -17 -2 -5 6 9 7 10 11 3 11 -6 0 -15 -4 -18 -10 -3 -5
-11 -10 -16 -10 -6 0 -8 4 -5 8 2 4 -4 9 -15 9 -10 1 -19 -3 -19 -8 0 -6 5 -7
12 -3 7 4 8 3 4 -4 -5 -9 -13 -9 -26 -2 -24 13 -33 13 -25 0 3 -6 -1 -7 -9 -4
-9 3 -13 11 -9 18 4 6 -1 5 -10 -3 -14 -11 -17 -11 -17 0 0 8 -6 6 -16 -7 -8
-10 -12 -13 -8 -5 5 10 1 11 -16 6 -17 -6 -21 -4 -14 6 6 12 5 12 -8 1 -13
-10 -17 -10 -21 0 -4 9 -6 10 -6 1 -1 -7 -8 -10 -18 -6 -11 4 -14 3 -9 -5 5
-8 2 -10 -8 -6 -9 3 -13 11 -9 18 4 6 0 6 -9 -2 -13 -10 -17 -10 -21 0 -4 9
-6 10 -6 1 -1 -7 -8 -10 -18 -6 -10 4 -14 2 -10 -4 3 -5 0 -10 -8 -10 -8 0
-12 4 -10 8 3 4 -2 9 -10 12 -9 4 -12 1 -9 -8 3 -7 0 -23 -6 -35 -8 -15 -8
-20 -1 -16 6 4 11 4 12 -1 0 -4 2 -16 4 -26 2 -9 -1 -15 -6 -11 -5 3 -6 10 -3
16 4 7 2 8 -4 4 -8 -5 -8 -15 -2 -32 13 -33 13 -47 0 -39 -6 4 -7 11 -4 17 4
7 2 8 -4 4 -7 -4 -12 -14 -12 -22 0 -8 -5 -14 -11 -14 -5 0 -8 4 -4 9 3 5 1
12 -5 16 -5 3 -10 0 -10 -7 0 -8 -3 -9 -8 -3 -4 6 -13 11 -21 13 -11 2 -12 0
-3 -11 9 -11 8 -14 -3 -14 -8 0 -15 7 -15 16 0 12 -6 9 -20 -9 -12 -15 -20
-19 -20 -11 0 8 -3 11 -7 8 -3 -4 2 -16 12 -27 18 -20 18 -21 0 -14 -14 6 -16
4 -10 -6 11 -18 13 -80 3 -74 -4 3 -8 1 -8 -4 0 -5 -9 -12 -19 -15 -14 -3 -18
-1 -14 9 4 12 0 12 -22 4 -32 -12 -38 -13 -31 -1 6 9 -29 7 -63 -4 -14 -4 -21
-2 -21 6 0 7 -7 4 -15 -7 -11 -14 -14 -15 -9 -2 6 16 -17 20 -32 5 -11 -11
-26 -8 -19 3 3 6 0 10 -9 10 -19 0 -26 20 -15 42 7 12 4 20 -8 28 -16 10 -16
11 -1 6 11 -3 15 0 12 7 -8 22 -11 86 -3 81 4 -2 10 3 13 12 3 8 2 12 -4 9 -6
-3 -10 1 -10 9 0 9 5 16 11 16 5 0 7 5 4 10 -4 6 -11 7 -17 4 -7 -4 -8 -2 -4
5 15 24 -3 46 -38 46 -19 0 -32 -3 -30 -7 3 -4 -2 -8 -10 -8 -9 0 -16 5 -16
10 0 6 -5 10 -11 10 -5 0 -7 -5 -3 -12 4 -7 3 -8 -4 -4 -7 4 -12 16 -12 27 0
12 -4 17 -11 13 -8 -4 -8 -1 -1 12 5 11 7 25 5 32 -3 7 0 18 5 25 7 8 7 18 2
27 -7 11 -10 12 -10 2 0 -7 -5 -10 -10 -7 -6 4 -8 10 -6 14 7 11 -41 7 -51 -3
-5 -5 -2 -6 6 -1 10 6 12 4 6 -5 -6 -10 -11 -10 -20 3 -12 17 -31 24 -21 9 2
-4 -6 -8 -19 -8 -13 0 -21 4 -19 8 3 5 10 5 16 2 7 -4 8 -2 4 4 -4 6 -12 9
-19 6 -8 -3 -12 9 -12 40 0 24 3 42 7 40 4 -2 9 0 13 6 3 5 -1 10 -9 10 -9 0
-16 5 -16 11 0 5 6 7 13 3 8 -6 8 -3 -2 9 -10 12 -18 14 -31 7 -13 -7 -21 -7
-25 0 -3 5 -11 10 -17 10 -6 0 -5 -7 3 -17 13 -15 12 -15 -7 -5 -12 6 -24 8
-28 5 -3 -3 -6 -2 -6 4 0 14 -35 10 -54 -6 -14 -12 -16 -11 -10 4 6 15 4 16
-14 6 -12 -7 -22 -8 -22 -4 0 10 -76 10 -86 0 -4 -4 -13 -2 -21 5 -7 6 -16 8
-20 5 -3 -4 -13 -1 -21 6 -13 10 -14 9 -2 -13z m-176 -8 c3 -5 -1 -9 -9 -9 -8
0 -12 4 -9 9 3 4 7 8 9 8 2 0 6 -4 9 -8z m276 2 c0 -8 -19 -13 -24 -6 -3 5 1
9 9 9 8 0 15 -2 15 -3z m405 -164 c-3 -5 -12 -10 -18 -10 -7 0 -6 4 3 10 19
12 23 12 15 0z m-1125 -110 c0 -5 -5 -10 -11 -10 -5 0 -7 5 -4 10 3 6 8 10 11
10 2 0 4 -4 4 -10z m2110 -1216 c0 -8 -19 -13 -24 -6 -3 5 1 9 9 9 8 0 15 -2
15 -3z m-110 -56 c0 -4 -4 -8 -9 -8 -6 0 -12 4 -15 8 -3 5 1 9 9 9 8 0 15 -4
15 -9z m-170 -202 c0 -3 -4 -8 -10 -11 -5 -3 -10 -1 -10 4 0 6 5 11 10 11 6 0
10 -2 10 -4z m-2380 -166 c0 -5 -5 -10 -11 -10 -5 0 -7 5 -4 10 3 6 8 10 11
10 2 0 4 -4 4 -10z m1957 -415 c0 -8 -4 -15 -9 -15 -10 0 -11 14 -1 23 9 10
10 9 10 -8z m-1387 -479 c0 -3 -4 -8 -10 -11 -5 -3 -10 -1 -10 4 0 6 5 11 10
11 6 0 10 -2 10 -4z m1491 -419 c-10 -9 -11 -8 -5 6 3 10 9 15 12 12 3 -3 0
-11 -7 -18z"/>
<path d="M1125 3720 c-3 -5 -1 -10 4 -10 6 0 11 5 11 10 0 6 -2 10 -4 10 -3 0
-8 -4 -11 -10z"/>
<path d="M1276 3537 c3 -10 9 -15 12 -12 3 3 0 11 -7 18 -10 9 -11 8 -5 -6z"/>
<path d="M855 2380 c3 -5 8 -10 11 -10 2 0 4 5 4 10 0 6 -5 10 -11 10 -5 0 -7
-4 -4 -10z"/>
<path d="M3395 2240 c3 -5 8 -10 11 -10 2 0 4 5 4 10 0 6 -5 10 -11 10 -5 0
-7 -4 -4 -10z"/>
<path d="M3246 2093 c-6 -14 -5 -15 5 -6 7 7 10 15 7 18 -3 3 -9 -2 -12 -12z"/>
<path d="M3275 2100 c3 -5 8 -10 11 -10 2 0 4 5 4 10 0 6 -5 10 -11 10 -5 0
-7 -4 -4 -10z"/>
<path d="M2657 1063 c3 -7 6 -13 8 -13 2 0 5 6 8 13 3 8 -1 14 -8 14 -7 0 -11
-6 -8 -14z"/>
</g>
</svg>
